<svg id="svg" xmlns="http://www.w3.org/2000/svg" xmlns:xlink="http://www.w3.org/1999/xlink" width="400" height="400" viewBox="0, 0, 400,400"><g id="svgg"><path id="path0" d="M0.020 77.141 C 0.032 77.519,20.091 133.081,44.597 200.612 L 89.152 323.394 105.618 323.394 L 122.084 323.394 134.086 290.826 C 140.686 272.913,161.108 217.504,179.466 167.695 C 197.824 117.885,212.844 76.979,212.844 76.792 C 212.844 76.548,208.402 76.453,196.942 76.453 C 188.196 76.453,181.040 76.513,181.040 76.586 C 181.040 76.660,174.629 94.722,166.794 116.724 C 124.723 234.862,110.983 273.537,110.103 276.298 C 108.800 280.387,107.454 285.967,106.802 289.984 C 106.136 294.092,106.071 294.078,105.400 289.679 C 104.021 280.628,103.760 279.847,67.276 175.612 L 32.569 76.453 16.285 76.453 L 0.000 76.453 0.020 77.141 M248.012 199.992 L 248.012 323.547 288.041 323.547 C 328.899 323.547,331.139 323.492,337.770 322.326 C 369.269 316.786,393.605 294.879,398.753 267.431 C 406.118 228.167,384.923 197.366,346.942 192.141 L 345.107 191.888 348.012 190.872 C 374.361 181.653,391.032 154.586,387.787 126.298 C 384.855 100.740,364.976 82.442,334.404 77.160 C 331.628 76.681,327.492 76.623,289.679 76.534 L 248.012 76.436 248.012 199.992 M323.707 103.600 C 347.477 107.375,357.673 118.781,357.101 140.957 C 356.623 159.508,346.153 172.818,327.031 179.184 C 318.743 181.944,314.569 182.320,293.578 182.200 L 277.829 182.110 277.751 142.591 L 277.674 103.073 282.797 102.968 C 298.803 102.638,319.683 102.961,323.707 103.600 M322.171 209.158 C 353.934 212.439,368.673 225.587,369.324 251.223 C 369.874 272.852,358.386 287.947,336.409 294.476 C 328.734 296.756,328.234 296.789,301.682 296.789 L 277.829 296.789 277.751 252.642 L 277.674 208.494 298.241 208.653 C 310.170 208.744,320.220 208.957,322.171 209.158 " stroke="none" fill="#000000" fill-rule="evenodd"></path></g></svg>